<svg width="150" height="150" viewBox="0 0 150 150" fill="none" xmlns="http://www.w3.org/2000/svg">
<path d="M0 50C0 22.3858 22.3858 0 50 0H100C127.614 0 150 22.3858 150 50V100C150 127.614 127.614 150 100 150H50C22.3858 150 0 127.614 0 100V50Z" fill="#3B82F6"/>
<path d="M82.0872 48.0615C88.5968 47.4424 94.6068 51.5543 96.2994 57.7855L108.565 102.938C102.055 103.558 96.0453 99.4457 94.3526 93.2145L91.3978 82.3368L41.585 87.1423C33.9913 87.8749 26.9748 83.0812 25 75.8114L87.9749 69.7361L82.0872 48.0615Z" fill="white"/>
<path d="M108.102 67.4247C115.442 66.9578 122.096 71.6663 124 78.6745L107.908 79.6982L104.634 67.6454L108.102 67.4247Z" fill="white"/>
</svg>
