<svg width="451" height="150" viewBox="0 0 451 150" fill="none" xmlns="http://www.w3.org/2000/svg">
<rect width="150" height="150" rx="50" fill="#3B82F6"/>
<path d="M82.0872 48.0615C88.5968 47.4424 94.6068 51.5543 96.2994 57.7855L108.565 102.938C102.055 103.558 96.0453 99.4457 94.3526 93.2145L91.3978 82.3368L41.585 87.1423C33.9913 87.8749 26.9748 83.0812 25 75.8114L87.9749 69.7361L82.0872 48.0615Z" fill="white"/>
<path d="M108.102 67.4247C115.442 66.9578 122.096 71.6663 124 78.6745L107.908 79.6982L104.634 67.6454L108.102 67.4247Z" fill="white"/>
<path d="M227.816 135.328L235.981 86.201H254.424C258.202 86.201 261.26 86.9047 263.597 88.312C265.935 89.7033 267.56 91.6303 268.472 94.0931C269.385 96.5398 269.577 99.3304 269.049 102.465C268.536 105.615 267.408 108.414 265.663 110.861C263.933 113.307 261.652 115.234 258.818 116.642C255.985 118.033 252.671 118.729 248.876 118.729H236.653L237.878 111.412H248.9C251.11 111.412 252.983 111.029 254.52 110.261C256.073 109.493 257.297 108.438 258.194 107.095C259.091 105.751 259.683 104.208 259.971 102.465C260.243 100.722 260.155 99.1865 259.707 97.8592C259.259 96.5319 258.386 95.5004 257.089 94.7647C255.809 94.0131 254.056 93.6373 251.83 93.6373H243.665L236.725 135.328H227.816Z" fill="#3B82F6"/>
<path d="M309.237 107.67L308.036 114.987H294.57C290.683 114.987 287.727 111.499 288.368 107.67H309.237ZM272.735 119.472H281.692C281.484 122.511 282.076 124.814 283.469 126.381C284.862 127.948 287.256 128.732 290.65 128.732C293.275 128.732 295.508 128.076 297.35 126.765C299.207 125.437 300.704 123.598 301.84 121.247C302.993 118.897 303.825 116.162 304.338 113.044L305.082 108.582C305.643 105.303 305.691 102.497 305.226 100.162C304.762 97.8272 303.793 96.0441 302.321 94.8127C300.848 93.5653 298.87 92.9417 296.389 92.9417C294.02 92.9417 292.05 93.3175 290.481 94.0691C288.913 94.8207 287.648 95.9082 286.687 97.3314C285.743 98.7387 285.006 100.426 284.478 102.393H275.52C276.369 99.1945 277.754 96.324 279.675 93.7812C281.596 91.2385 284.054 89.2315 287.047 87.7603C290.041 86.273 293.555 85.5294 297.59 85.5294C301.704 85.5294 305.114 86.4729 307.82 88.36C310.542 90.247 312.439 92.9177 313.511 96.3719C314.584 99.8262 314.72 103.888 313.92 108.558L313.223 113.116C312.439 117.785 310.95 121.839 308.756 125.277C306.579 128.7 303.841 131.346 300.543 133.217C297.262 135.072 293.571 136 289.473 136C285.47 136 282.18 135.296 279.603 133.889C277.041 132.466 275.192 130.515 274.056 128.036C272.919 125.541 272.479 122.687 272.735 119.472Z" fill="#3B82F6"/>
<path d="M318.026 135.328L326.191 86.201H345.018C348.572 86.201 351.438 86.7608 353.615 87.8802C355.793 88.9836 357.306 90.4949 358.154 92.4139C359.019 94.333 359.243 96.5079 358.827 98.9386C358.49 100.922 357.818 102.625 356.809 104.048C355.817 105.455 354.6 106.607 353.159 107.502C351.718 108.382 350.173 109.014 348.524 109.397L348.428 109.877C350.157 109.957 351.742 110.485 353.183 111.46C354.624 112.436 355.713 113.811 356.449 115.586C357.186 117.345 357.354 119.464 356.953 121.943C356.521 124.486 355.521 126.773 353.952 128.804C352.383 130.819 350.253 132.41 347.564 133.577C344.89 134.745 341.68 135.328 337.934 135.328H318.026ZM328.184 127.892H337.766C340.984 127.892 343.417 127.276 345.066 126.045C346.715 124.798 347.7 123.198 348.02 121.247C348.26 119.792 348.116 118.481 347.588 117.313C347.059 116.13 346.187 115.202 344.97 114.531C343.753 113.843 342.233 113.499 340.407 113.499H330.562L328.184 127.892ZM331.666 107.095H340.48C342.016 107.095 343.441 106.815 344.754 106.255C346.083 105.679 347.188 104.872 348.068 103.832C348.965 102.777 349.517 101.529 349.725 100.09C350.061 98.187 349.661 96.6198 348.524 95.3884C347.388 94.157 345.515 93.5414 342.905 93.5414H333.876L331.666 107.095Z" fill="#3B82F6"/>
<path d="M362.471 135.328L370.636 86.201H402.623C401.902 90.5066 398.172 93.6613 393.802 93.6613H378.296L376.087 106.999H397.508L396.259 114.459H374.838L372.629 127.868H395.899L394.65 135.328H362.471Z" fill="#3B82F6"/>
<path d="M400.354 135.328L401.626 127.94L403.019 127.868C404.924 127.756 406.533 127.076 407.846 125.829C409.175 124.582 410.336 122.575 411.328 119.808C412.321 117.042 413.281 113.331 414.21 108.678L418.773 86.201H451L442.835 135.328C438.271 135.328 434.8 131.236 435.549 126.739L441.082 93.5174H425.881L422.111 111.436C420.99 116.81 419.661 121.263 418.124 124.798C416.587 128.332 414.594 130.971 412.145 132.714C409.711 134.457 406.581 135.328 402.755 135.328H400.354Z" fill="#3B82F6"/>
<path d="M188 93.6612C188.721 89.3556 192.451 86.2009 196.821 86.2009H228.488C227.768 90.5064 224.038 93.6612 219.667 93.6612H212.038L206.568 126.62C205.734 131.644 201.384 135.328 196.285 135.328L203.201 93.6612H188Z" fill="#3B82F6"/>
<path d="M205.17 80.2798C206.134 75.4654 210.365 72 215.281 72L213.167 82.5547H204.714L205.17 80.2798Z" fill="#3B82F6"/>
<path d="M188 58.3878L195.525 13.6122H212.524C216.006 13.6122 218.825 14.2535 220.979 15.5361C223.133 16.8042 224.631 18.5605 225.472 20.8051C226.313 23.0352 226.49 25.5786 226.003 28.4354C225.531 31.3067 224.491 33.8574 222.883 36.0875C221.289 38.3175 219.186 40.0738 216.574 41.3565C213.963 42.6245 210.908 43.2586 207.411 43.2586H196.145L197.274 36.5903H207.433C209.47 36.5903 211.196 36.2405 212.613 35.5409C214.044 34.8413 215.173 33.8793 215.999 32.6549C216.825 31.4306 217.371 30.0241 217.637 28.4354C217.888 26.8466 217.807 25.4474 217.393 24.2376C216.98 23.0279 216.176 22.0878 214.981 21.4173C213.8 20.7323 212.185 20.3897 210.134 20.3897H202.608L197.575 50.2902C196.788 54.9648 192.74 58.3878 188 58.3878V58.3878Z" fill="#3B82F6"/>
<path d="M228.82 58.3878H220.055L243.539 13.6122H253.676L262.131 58.3878H253.366L247.279 22.7947H246.925L228.82 58.3878ZM232.051 40.8317H255.956L254.849 47.347H230.945L232.051 40.8317Z" fill="#3B82F6"/>
<path d="M309.707 28.7196H301.562C301.562 27.3786 301.34 26.1907 300.898 25.1559C300.455 24.1065 299.835 23.2174 299.039 22.4886C298.242 21.7598 297.297 21.2132 296.206 20.8489C295.114 20.4699 293.904 20.2804 292.576 20.2804C290.038 20.2804 287.677 20.9145 285.493 22.1825C283.309 23.4506 281.457 25.2944 279.937 27.7139C278.417 30.1188 277.362 33.0412 276.772 36.481C276.226 39.8333 276.278 42.6391 276.927 44.8983C277.591 47.1575 278.742 48.8628 280.38 50.0143C282.018 51.1511 284.01 51.7196 286.356 51.7196C287.787 51.7196 289.16 51.5447 290.473 51.1949C291.786 50.8305 292.996 50.2985 294.103 49.5989C295.224 48.8847 296.206 48.0174 297.047 46.9972C297.902 45.9769 298.566 44.8181 299.039 43.5209H307.294C306.616 45.6489 305.62 47.653 304.306 49.5333C302.993 51.3989 301.414 53.0459 299.57 54.4743C297.725 55.8881 295.66 56.9959 293.372 57.7975C291.085 58.5992 288.621 59 285.98 59C281.922 59 278.447 58.0672 275.555 56.2015C272.678 54.3213 270.612 51.6321 269.357 48.134C268.103 44.6214 267.882 40.4163 268.693 35.519C269.505 30.7529 271.069 26.6936 273.386 23.3413C275.717 19.9889 278.558 17.4309 281.907 15.6673C285.272 13.8891 288.894 13 292.775 13C295.342 13 297.674 13.3498 299.769 14.0494C301.879 14.7491 303.687 15.7766 305.192 17.1321C306.697 18.4731 307.84 20.1201 308.622 22.0732C309.419 24.0117 309.781 26.2272 309.707 28.7196Z" fill="#3B82F6"/>
<path d="M318.466 21.6446C319.246 17.0079 323.26 13.6122 327.962 13.6122V13.6122L322.871 44.1331H323.269L344.872 19.1841C347.936 15.6454 352.386 13.6122 357.067 13.6122V13.6122L349.542 58.3878H341.33L346.465 27.8888H346.089L319.573 58.3878H312.291L318.466 21.6446Z" fill="#3B82F6"/>
<path d="M403 13.6122L395.475 58.3878V58.3878C391.213 58.3878 387.973 54.558 388.68 50.3554L393.726 20.346H373.894L367.498 58.3878H359.353L366.878 13.6122H403Z" fill="#3B82F6"/>
</svg>
